<?xml version="1.0" encoding="UTF-8"?>
<svg width="479px" height="176px" viewBox="0 0 479 176" version="1.1" xmlns="http://www.w3.org/2000/svg" xmlns:xlink="http://www.w3.org/1999/xlink">
    <!-- Generator: Sketch 3.6.1 (26313) - http://www.bohemiancoding.com/sketch -->
    <title>Group</title>
    <desc>Created with Sketch.</desc>
    <defs></defs>
    <g id="Page-1" stroke="none" stroke-width="1" fill="none" fill-rule="evenodd">
        <g id="Group">
            <g id="logo_BTOD_lone">
                <path d="M50.49,61.17 C50.49,75.9 40.36,85.8 26.21,85.8 L0.21,85.8 L0.21,3.31 L25.86,3.31 C38.59,3.31 47.66,12.74 47.66,26.76 C47.66,33.01 45.07,39.61 40.66,43.61 C46.857337,47.2684576 50.6112928,53.9744051 50.49,61.17 L50.49,61.17 Z M16.9,19.1 L16.9,36.31 L23.5,36.31 C28.22,36.31 30.69,33.24 30.69,27.47 C30.69,21.93 28.34,19.1 22.91,19.1 L16.9,19.1 Z M33.28,61.1 C33.28,55.1 29.87,52.02 23.62,52.02 L16.9,52.02 L16.9,70.02 L23.27,70.02 C29.87,70 33.28,67 33.28,61.06 L33.28,61.1 Z" id="Shape" fill="#464F55"></path>
                <path d="M94.33,23.23 L94.33,38.55 C91.97338,37.4276698 89.3899655,36.8630825 86.78,36.9 C80.07,36.9 75.94,39.96 75.94,46.56 L75.94,85.8 L59.94,85.8 L59.94,23.35 L70.54,23.35 L71.72,29.94 C75.02,24.64 80.44,21.81 87.51,21.81 C89.8663537,21.7050322 92.2113568,22.1932879 94.33,23.23 L94.33,23.23 Z" id="Shape" fill="#464F55"></path>
                <path d="M99.63,62.47 L99.63,46.56 C99.63,30.65 108.23,21.81 122.84,21.81 C137.45,21.81 146.06,30.65 146.06,46.56 L146.06,62.47 C146.06,78.38 137.45,87.33 122.84,87.33 C108.23,87.33 99.63,78.38 99.63,62.47 L99.63,62.47 Z M129.68,62.47 L129.68,46.56 C129.68,40.08 127.32,37.37 122.84,37.37 C118.36,37.37 116.01,40.08 116.01,46.56 L116.01,62.47 C116.01,68.95 118.36,71.78 122.84,71.78 C127.32,71.78 129.72,69 129.72,62.47 L129.68,62.47 Z" id="Shape" fill="#464F55"></path>
                <path d="M155.01,63.77 L155.01,45.15 C155.01,30.53 163.26,21.81 177.28,21.81 C192.01,21.81 199.55,30.53 200.03,45.15 L183.88,45.15 C183.65,39.84 181.64,37.15 177.64,37.15 C173.64,37.15 171.27,39.86 171.27,45.15 L171.27,63.77 C171.27,69.07 173.51,71.9 177.64,71.9 C182,71.9 184,69.07 184.35,63.77 L200.5,63.77 C200.14,78.5 191.5,87.22 177.28,87.22 C163.26,87.22 155.01,78.5 155.01,63.77 L155.01,63.77 Z" id="Shape" fill="#464F55"></path>
                <path d="M252.93,47.5 L252.93,85.8 L236.79,85.8 L236.79,47.5 C236.79,39.84 234.67,37.13 230.79,37.13 C226.67,37.13 224.07,40.2 224.07,46.33 L224.07,85.8 L208.07,85.8 L208.07,0.37 L224.07,0.37 L224.07,27.71 C226.9,24.05 230.67,21.81 235.27,21.81 C246.34,21.81 252.93,30.53 252.93,47.5 L252.93,47.5 Z" id="Shape" fill="#464F55"></path>
                <path d="M308.91,65.89 C307.61,79.32 299.01,87.22 285.1,87.22 C271.19,87.22 262.72,78 262.72,62.59 L262.72,46 C262.72,30.8 271.09,21.84 285.23,21.84 C299.61,21.84 308.09,30.84 308.09,46 L308.09,60 L278.86,60 L278.86,62.59 C278.86,69.07 281.1,71.9 285.34,71.9 C290.17,71.9 291.59,70.13 292.65,65.9 L308.91,65.89 Z M278.86,45.74 L278.86,49 L292.18,49 L292.18,45.7 C292.18,39.33 289.82,36.62 285.34,36.62 C281.1,36.66 278.86,39.37 278.86,45.74 L278.86,45.74 Z" id="Shape" fill="#464F55"></path>
                <path d="M348.15,71.66 L348.15,86.75 L342.96,86.75 C329.53,86.75 321.16,77.91 321.16,64 L321.16,37.84 L313.03,37.84 L313.03,23.35 L321.16,23.35 L321.16,8.26 L337.07,8.26 L337.07,23.35 L347.32,23.35 L347.32,37.84 L337.07,37.84 L337.07,64.24 C337.07,69.42 339.31,71.66 344.14,71.66 L348.15,71.66 Z" id="Shape" fill="#464F55"></path>
                <path d="M387.62,71.66 L387.62,86.75 L382.44,86.75 C369,86.75 360.64,77.91 360.64,64 L360.64,37.84 L352.51,37.84 L352.51,23.35 L360.64,23.35 L360.64,8.26 L376.55,8.26 L376.55,23.35 L386.8,23.35 L386.8,37.84 L376.55,37.84 L376.55,64.24 C376.55,69.42 378.79,71.66 383.62,71.66 L387.62,71.66 Z" id="Shape" fill="#464F55"></path>
                <path d="M441.83,65.89 C440.53,79.32 431.93,87.22 418.02,87.22 C404.11,87.22 395.63,78.03 395.63,62.59 L395.63,46 C395.63,30.8 404,21.84 418.14,21.84 C432.52,21.84 441,30.84 441,46 L441,60 L411.78,60 L411.78,62.59 C411.78,69.07 414.02,71.9 418.26,71.9 C423.09,71.9 424.51,70.13 425.57,65.9 L441.83,65.89 Z M411.78,45.74 L411.78,49 L425.1,49 L425.1,45.7 C425.1,39.33 422.74,36.62 418.26,36.62 C414.02,36.66 411.78,39.37 411.78,45.74 L411.78,45.74 Z" id="Shape" fill="#464F55"></path>
                <path d="M181.39,152.15 L180.15,158.23 C178.464193,158.685946 176.726355,158.921244 174.98,158.93 C172.439631,159.062729 169.934503,158.290285 167.91,156.75 C166.578595,155.652232 165.838368,153.994124 165.91,152.27 C166.103564,150.040045 166.461199,147.827386 166.98,145.65 L172.28,120.3 L166.41,120.3 L167.6,114.54 L173.48,114.54 L175.72,103.82 L184.22,98.68 L180.89,114.54 L188.21,114.54 L186.98,120.3 L179.72,120.3 L174.72,144.42 C174.291487,146.23562 173.97423,148.07571 173.77,149.93 C173.724586,150.67484 174.001396,151.403287 174.53,151.93 C175.245051,152.462873 176.13203,152.712225 177.02,152.63 C178.490885,152.65078 179.958694,152.489557 181.39,152.15 L181.39,152.15 Z" id="Shape" fill="#E53C85"></path>
                <path d="M188.72,141.63 C188.72,133.11 191.226667,126.053333 196.24,120.46 C200.38,115.86 205.806667,113.56 212.52,113.56 C217.78,113.56 222.02,115.203333 225.24,118.49 C228.46,121.776667 230.07,126.213333 230.07,131.8 C230.119143,136.631252 229.094463,141.413093 227.07,145.8 C225.234705,149.891618 222.223659,153.344748 218.42,155.72 C214.886543,157.968045 210.787944,159.167804 206.6,159.18 C203.378398,159.220722 200.195794,158.472278 197.33,157 C194.635523,155.629294 192.415935,153.479395 190.96,150.83 C189.439382,148.005153 188.668177,144.837702 188.72,141.63 L188.72,141.63 Z M196.16,140.89 C196.16,145.003333 197.16,148.12 199.16,150.24 C201.086305,152.34122 203.830596,153.501705 206.68,153.42 C208.307064,153.400752 209.914372,153.06094 211.41,152.42 C213.034426,151.72675 214.511029,150.72877 215.76,149.48 C217.114345,148.150793 218.272625,146.635601 219.2,144.98 C220.157057,143.252198 220.921633,141.424594 221.48,139.53 C222.299311,137.006707 222.727602,134.372881 222.75,131.72 C222.75,127.78 221.75,124.72 219.75,122.54 C217.852037,120.400777 215.109072,119.204844 212.25,119.27 C210.01643,119.24377 207.816694,119.817013 205.88,120.93 C203.824337,122.170724 202.052648,123.829979 200.68,125.8 C199.083644,128.049711 197.926688,130.580763 197.27,133.26 C196.575721,135.746067 196.19609,138.309418 196.14,140.89 L196.16,140.89 Z" id="Shape" fill="#E53C85"></path>
                <path d="M287.01,151.86 C282.763333,156.74 278.326667,159.18 273.7,159.18 C269.742538,159.262377 265.953447,157.580372 263.36,154.59 C260.613333,151.543333 259.236667,147.113333 259.23,141.3 C259.168482,136.254742 260.288331,131.265078 262.5,126.73 C264.309592,122.771407 267.131129,119.360038 270.68,116.84 C273.554906,114.780801 276.984556,113.637585 280.52,113.56 C285.94,113.56 290.036667,116.176667 292.81,121.41 L297.72,97.94 L305.12,97.94 L292.54,158.19 L285.72,158.19 L287.01,151.86 Z M266.63,139.86 C266.548211,142.289166 266.85198,144.715942 267.53,147.05 C268.109292,148.778246 269.179573,150.300269 270.61,151.43 C272.093119,152.603412 273.939301,153.222343 275.83,153.18 C279.203333,153.18 282.26,151.426667 285,147.92 C288.666667,143.253333 290.503333,137.496667 290.51,130.65 C290.51,127.196667 289.603333,124.5 287.79,122.56 C286.050039,120.640402 283.559981,119.574277 280.97,119.64 C279.272553,119.621938 277.597834,120.031161 276.1,120.83 C274.379104,121.859802 272.893702,123.239589 271.74,124.88 C270.150048,127.086977 268.924474,129.534749 268.11,132.13 C267.201634,134.623448 266.701868,137.247219 266.63,139.9 L266.63,139.86 Z" id="Shape" fill="#E53C85"></path>
                <path d="M304.11,158.19 L313.23,114.54 L320.72,114.54 L311.6,158.19 L304.11,158.19 Z M314.96,106.36 L316.73,97.94 L324.12,97.94 L322.36,106.36 L314.96,106.36 Z" id="Shape" fill="#E53C85"></path>
                <path d="M322.72,162.13 L330.24,162.83 C330.113673,164.137788 330.32365,165.456163 330.85,166.66 C331.355022,167.548575 332.133728,168.250113 333.07,168.66 C334.729325,169.316737 336.506555,169.623156 338.29,169.56 C342.79,169.56 346.023333,168.396667 347.99,166.07 C349.276667,164.51 350.47,161.113333 351.57,155.88 L352.31,152.34 C348.436667,156.26 344.326667,158.22 339.98,158.22 C335.750636,158.302909 331.698742,156.521977 328.9,153.35 C325.933333,150.103333 324.446667,145.506667 324.44,139.56 C324.379715,134.810421 325.584253,130.130327 327.93,126 C329.928082,122.269988 332.795717,119.076485 336.29,116.69 C339.240431,114.679437 342.71984,113.586903 346.29,113.55 C352.01,113.55 356.42,116.26 359.52,121.68 L361,114.53 L367.82,114.53 L359.03,156.66 C358.370808,160.452443 357.093847,164.111037 355.25,167.49 C353.687386,170.065995 351.426701,172.14638 348.73,173.49 C345.733729,174.963096 342.428139,175.69691 339.09,175.63 C336.01479,175.692765 332.951248,175.232896 330.03,174.27 C327.771757,173.555239 325.790764,172.157713 324.36,170.27 C323.108068,168.522932 322.45234,166.418991 322.49,164.27 C322.507106,163.551517 322.584039,162.835709 322.72,162.13 L322.72,162.13 Z M332,138.87 C331.898787,141.150042 332.193135,143.430392 332.87,145.61 C333.547438,147.526009 334.766839,149.203989 336.38,150.44 C337.846545,151.534528 339.630074,152.120845 341.46,152.11 C344.093737,152.041537 346.638376,151.141988 348.73,149.54 C351.398549,147.479187 353.430024,144.705843 354.59,141.54 C356.008539,138.298503 356.769903,134.807788 356.83,131.27 C356.982504,128.131903 355.906406,125.057848 353.83,122.7 C351.943846,120.62512 349.253529,119.465878 346.45,119.52 C344.597808,119.528652 342.781669,120.032751 341.19,120.98 C339.31731,122.112241 337.699893,123.620696 336.44,125.41 C334.903761,127.563287 333.77512,129.979865 333.11,132.54 C332.474882,134.596005 332.092074,136.721598 331.97,138.87 L332,138.87 Z" id="Shape" fill="#E53C85"></path>
                <path d="M369.62,158.19 L378.72,114.54 L386.15,114.54 L377.03,158.19 L369.62,158.19 Z M380.47,106.36 L382.24,97.94 L389.64,97.94 L387.87,106.36 L380.47,106.36 Z" id="Shape" fill="#E53C85"></path>
                <path d="M405.99,152.15 L404.72,158.23 C403.030803,158.686029 401.289649,158.92132 399.54,158.93 C396.999739,159.061856 394.494906,158.289503 392.47,156.75 C391.14113,155.650305 390.401495,153.993523 390.47,152.27 C390.663564,150.040045 391.021199,147.827386 391.54,145.65 L396.84,120.3 L390.96,120.3 L392.16,114.54 L398.03,114.54 L400.29,103.82 L408.8,98.68 L405.47,114.54 L412.79,114.54 L411.56,120.3 L404.28,120.3 L399.23,144.42 C398.796012,146.234499 398.478696,148.074934 398.28,149.93 C398.230601,150.675441 398.508017,151.405484 399.04,151.93 C399.755051,152.462873 400.64203,152.712225 401.53,152.63 C403.031007,152.659795 404.529706,152.4985 405.99,152.15 L405.99,152.15 Z" id="Shape" fill="#E53C85"></path>
                <path d="M441.42,152.76 C439.203648,154.754267 436.694461,156.396705 433.98,157.63 C431.56784,158.669174 428.966426,159.196948 426.34,159.18 C422.748166,159.341853 419.240875,158.059928 416.6,155.62 C414.130104,153.249901 412.784801,149.941181 412.9,146.52 C412.854375,144.249305 413.428259,142.009086 414.56,140.04 C415.642237,138.195088 417.159757,136.643234 418.98,135.52 C421.056988,134.298015 423.342096,133.470765 425.72,133.08 C428.873431,132.617062 432.053271,132.356529 435.24,132.3 C439.91,132.11 443.24,131.61 445.24,130.82 C445.755696,129.180003 446.048322,127.47806 446.11,125.76 C446.174739,124.177622 445.470703,122.661522 444.22,121.69 C442.493333,120.316667 439.97,119.633333 436.65,119.64 C433.944435,119.524818 431.269284,120.247737 428.99,121.71 C426.952167,123.164536 425.431733,125.231485 424.65,127.61 L417.13,126.95 C418.433594,122.939135 420.993028,119.454098 424.43,117.01 C427.763333,114.71 431.96,113.56 437.02,113.56 C442.42,113.56 446.696667,114.846667 449.85,117.42 C452.186034,119.187852 453.529361,121.971255 453.46,124.9 C453.418035,127.628044 453.082774,130.343661 452.46,133 L450.03,143.85 C449.351866,146.60846 448.966403,149.430721 448.88,152.27 C448.969793,154.270293 449.274888,156.255085 449.79,158.19 L442.26,158.19 C441.802655,156.411917 441.5213,154.593162 441.42,152.76 L441.42,152.76 Z M444.18,136.08 C443.095684,136.498904 441.97396,136.813657 440.83,137.02 C439.63,137.24 437.64,137.48 434.83,137.72 C431.735427,137.898215 428.666638,138.387345 425.67,139.18 C424.065789,139.66064 422.661687,140.650532 421.67,142 C420.781902,143.245822 420.309481,144.740072 420.32,146.27 C420.263147,148.212982 421.046675,150.086159 422.47,151.41 C424.186356,152.843044 426.38904,153.559364 428.62,153.41 C433.807315,153.355176 438.570152,150.53332 441.11,146.01 C442.673892,142.891931 443.711228,139.536641 444.18,136.08 L444.18,136.08 Z" id="Shape" fill="#E53C85"></path>
                <path d="M458.23,158.19 L470.81,97.94 L478.25,97.94 L465.72,158.19 L458.23,158.19 Z" id="Shape" fill="#E53C85"></path>
            </g>
        </g>
    </g>
</svg>